<mxfile host="app.diagrams.net" modified="2023-08-23T07:19:59.469Z" agent="Mozilla/5.0 (Windows NT 10.0; Win64; x64) AppleWebKit/537.36 (KHTML, like Gecko) Chrome/115.0.0.0 Safari/537.36 Edg/115.0.1901.203" version="21.6.8" etag="MeUDqBMkw7OG0wc3wl5S" type="github">
  <diagram name="페이지-1" id="gPCfpFXzrUl-uxdze2l2">
    <mxGraphModel>
      <root>
        <mxCell id="0" />
        <mxCell id="1" parent="0" />
      </root>
    </mxGraphModel>
  </diagram>
</mxfile>
